<svg width="704" height="799" viewBox="0 0 704 799" fill="none" xmlns="http://www.w3.org/2000/svg">
<path d="M703.87 223.92V328.56H657.87V242.52C657.87 230.46 651.64 219.28 641.45 212.94L641.42 212.92C641.1 212.72 640.78 212.53 640.45 212.34L614.47 197.34L523.59 144.87L490.36 125.68L490.34 125.69L462.89 109.85C452.11 103.62 438.82 103.62 428.04 109.85L398.53 126.89L352.53 153.44L182.49 251.62V198.5L306.53 126.89L352.53 100.33L399.47 73.23L399.49 73.22L369.42 55.86C369.14 55.7 368.86 55.54 368.57 55.4L368.4 55.3C357.81 49.65 345.02 49.83 334.57 55.86L305.04 72.91L304.86 72.81L182.49 143.46L156.02 158.74C155.01 159.32 154.03 159.96 153.1 160.63C153.09 160.64 153.07 160.65 153.06 160.66C152.07 161.37 151.13 162.13 150.24 162.92C142.91 169.46 138.59 178.88 138.59 188.92V328.56H92.59V195.57L63.55 212.34C61.76 213.37 60.08 214.55 58.53 215.87C50.75 222.41 46.13 232.14 46.13 242.52V328.56H0.130005V223.92C0.130005 208.99 6.97001 195.04 18.44 185.9L110.02 133.03L182.49 91.19V90.55L305.98 19.26L306.34 19.05L327.68 6.73001C342.47 -1.80999 360.63 -1.95999 375.53 6.30001L397.8 19.15L469.65 60.64L523.59 91.78L536.14 99.02V99.03L590.15 130.21L680.66 182.46C695.05 191.28 703.87 206.97 703.87 223.92Z" fill="white"/>
<path d="M611.47 277.9V328.56H565.47V296.5C565.47 284.05 558.82 272.55 548.04 266.32L523.59 252.2L397.8 179.58L443.6 152.91L523.59 199.09L568.47 225L587.15 235.79C602.2 244.47 611.47 260.53 611.47 277.9Z" fill="white"/>
<path d="M703.87 508.62V575.41C703.87 590.34 697.03 604.29 685.56 613.43L593.98 666.3L521.51 708.14V708.78L398.02 780.07L397.66 780.28L376.32 792.6C361.53 801.14 343.37 801.29 328.47 793.03L306.2 780.18L234.35 738.69L180.41 707.55L167.86 700.31V700.3L113.85 669.12L23.34 616.87C8.95 608.05 0.130005 592.36 0.130005 575.41V508.62H46.13V556.81C46.13 568.87 52.36 580.05 62.55 586.39L62.58 586.41C62.9 586.61 63.22 586.8 63.55 586.99L89.53 601.99L180.41 654.46L213.64 673.65L213.66 673.64L241.11 689.48C251.89 695.71 265.18 695.71 275.96 689.48L305.47 672.44L351.47 645.89L521.51 547.71V600.83L397.47 672.44L351.47 699L304.53 726.1L304.51 726.11L334.58 743.47C334.86 743.63 335.14 743.79 335.43 743.93L335.6 744.03C346.19 749.68 358.98 749.5 369.43 743.47L398.96 726.42L399.14 726.52L521.51 655.87L547.98 640.59C548.99 640.01 549.97 639.37 550.9 638.7C550.91 638.69 550.93 638.68 550.94 638.67C551.93 637.96 552.87 637.2 553.76 636.41C561.09 629.87 565.41 620.45 565.41 610.41V508.62H611.41V603.76L640.45 586.99C642.24 585.96 643.92 584.78 645.47 583.46C653.25 576.92 657.87 567.19 657.87 556.81V508.62H703.87Z" fill="white"/>
<path d="M306.2 619.75L260.4 646.42L180.41 600.24L135.53 574.33L116.85 563.54C101.8 554.86 92.53 538.8 92.53 521.43V508.62H139.02C140.73 518.77 146.88 527.76 155.96 533.01L180.41 547.13L306.2 619.75Z" fill="white"/>
<path d="M453.4 311.97C447.54 299.08 440.42 289.15 426.98 282.16C413.56 275.17 399.88 271.69 380.92 271.69H305.86C290.55 271.69 276.09 284.1 273.55 299.4L239.43 504.94C237.73 515.19 244.66 523.5 254.91 523.5H296.15L310.75 435.55H352.7C382.91 435.55 400.28 428.32 420 413.84C439.72 399.36 452.85 380.02 456.87 355.83C459.58 339.49 459.27 324.85 453.4 311.97Z" fill="white"/>
</svg>
